<svg xmlns="http://www.w3.org/2000/svg" version="1.0" viewBox="0 0 74 74" id="delivery-bike"><path fill="#343434" d="M26.67 52.53c0 4.26-3.48 7.74-7.74 7.74-4.29 0-7.76-3.48-7.76-7.74a7.76 7.76 0 0 1 7.76-7.76c4.26 0 7.74 3.48 7.74 7.76z"></path><path fill="#343434" d="M26.67 52.53c0 4.26-3.48 7.74-7.74 7.74-4.29 0-7.76-3.48-7.76-7.74a7.76 7.76 0 0 1 7.76-7.76c4.26 0 7.74 3.48 7.74 7.76z" opacity=".2"></path><path fill="#343434" d="M18.92 58.78c-3.45 0-6.26-2.8-6.26-6.24 0-3.45 2.81-6.27 6.26-6.27 3.44 0 6.24 2.81 6.24 6.27.01 3.43-2.79 6.24-6.24 6.24z"></path><path fill="#343434" d="M18.92 58.78c-3.45 0-6.26-2.8-6.26-6.24 0-3.45 2.81-6.27 6.26-6.27 3.44 0 6.24 2.81 6.24 6.27.01 3.43-2.79 6.24-6.24 6.24z"></path><path fill="#e6e6e6" d="M23.41 52.25c0 2.47-2.02 4.49-4.49 4.49-2.48 0-4.5-2.02-4.5-4.49 0-2.48 2.02-4.5 4.5-4.5 2.47 0 4.49 2.01 4.49 4.5z"></path><path d="M18.92 60.78c-4.56 0-8.26-3.7-8.26-8.24 0-4.56 3.71-8.27 8.26-8.27s8.24 3.71 8.24 8.27c.01 4.54-3.69 8.24-8.24 8.24zm0-15.51c-4.01 0-7.26 3.26-7.26 7.27 0 3.99 3.26 7.24 7.26 7.24 3.99 0 7.24-3.25 7.24-7.24.01-4.01-3.24-7.27-7.24-7.27z"></path><path d="M18.92 57.23a5 5 0 0 1-5-4.99c0-2.76 2.24-5 5-5a5 5 0 0 1 4.99 5c0 2.76-2.24 4.99-4.99 4.99zm0-8.98c-2.21 0-4 1.79-4 4a3.995 3.995 0 1 0 4-4z"></path><path fill="#343434" d="M67 52.53c0 4.26-3.48 7.74-7.74 7.74-4.29 0-7.76-3.48-7.76-7.74a7.76 7.76 0 0 1 7.76-7.76c4.26 0 7.74 3.48 7.74 7.76z"></path><path fill="#343434" d="M67 52.53c0 4.26-3.48 7.74-7.74 7.74-4.29 0-7.76-3.48-7.76-7.74a7.76 7.76 0 0 1 7.76-7.76c4.26 0 7.74 3.48 7.74 7.76z" opacity=".2"></path><path fill="#343434" d="M59.26 58.78c-3.45 0-6.27-2.8-6.27-6.24 0-3.45 2.81-6.27 6.27-6.27 3.44 0 6.24 2.81 6.24 6.27 0 3.43-2.8 6.24-6.24 6.24z"></path><path fill="#e6e6e6" d="M63.74 52.25c0 2.47-2.02 4.49-4.49 4.49-2.48 0-4.5-2.02-4.5-4.49 0-2.48 2.02-4.5 4.5-4.5 2.47 0 4.49 2.01 4.49 4.5z"></path><path d="M59.26 60.78c-4.56 0-8.27-3.7-8.27-8.24 0-4.56 3.71-8.27 8.27-8.27 4.55 0 8.24 3.71 8.24 8.27 0 4.54-3.7 8.24-8.24 8.24zm0-15.51c-4.01 0-7.27 3.26-7.27 7.27 0 3.99 3.26 7.24 7.27 7.24 3.99 0 7.24-3.25 7.24-7.24 0-4.01-3.25-7.27-7.24-7.27z"></path><path d="M59.25 57.23a5 5 0 0 1-5-4.99c0-2.76 2.24-5 5-5a5 5 0 0 1 4.99 5c0 2.76-2.24 4.99-4.99 4.99zm0-8.98c-2.2 0-4 1.79-4 4a3.995 3.995 0 1 0 4-4z"></path><path fill="#e00000" d="M59.24 43.48h-7.72V30.23h1.96c1.12 0 2.11.74 2.43 1.82l3.33 11.43z"></path><path d="M59.24 43.98h-7.71c-.28 0-.5-.22-.5-.5V30.23c0-.28.22-.5.5-.5h1.96c1.34 0 2.53.9 2.91 2.18l3.33 11.43c.04.15.01.31-.08.44-.1.12-.25.2-.41.2zm-7.21-1h6.55l-3.15-10.79a2.037 2.037 0 0 0-1.95-1.46h-1.46v12.25z"></path><path fill="#e00000" d="M7.99 37.54h8.55v5.41H7.99z"></path><path d="M16.54 43.45H7.99c-.28 0-.5-.22-.5-.5v-5.41c0-.28.22-.5.5-.5h8.55c.28 0 .5.22.5.5v5.41c0 .28-.23.5-.5.5zm-8.05-1h7.55v-4.41H8.49v4.41z"></path><path fill="#ffe200" d="M6.16 38.2h1.83v4.1H6.16z"></path><path d="M7.99 42.8H6.16c-.28 0-.5-.22-.5-.5v-4.1c0-.28.22-.5.5-.5h1.83c.28 0 .5.22.5.5v4.1c0 .28-.22.5-.5.5zm-1.33-1h.83v-3.1h-.83v3.1z"></path><path fill="#e00000" d="M49.48 50.7c0-5.39 4.38-9.77 9.77-9.77 5.38 0 9.75 4.38 9.75 9.77H49.48z"></path><path fill="#343434" d="M49.48 50.7c0-5.39 4.38-9.77 9.77-9.77 5.38 0 9.75 4.38 9.75 9.77H49.48z" opacity=".2"></path><path fill="#e00000" d="M51.12 49.2c.71-3.84 4.08-6.77 8.13-6.77 4.04 0 7.41 2.92 8.12 6.77H51.12z"></path><path d="M69 51.2H49.48c-.28 0-.5-.22-.5-.5 0-5.66 4.6-10.27 10.27-10.27 5.65 0 10.25 4.61 10.25 10.27 0 .28-.22.5-.5.5zm-19-1h18.49c-.26-4.88-4.31-8.77-9.24-8.77-4.94.01-8.99 3.89-9.25 8.77z"></path><path fill="red" d="M53.08 28.32h-4.21l1.47 13.59c.34 3.12-2.11 5.85-5.25 5.85h-8.18c-3.6 0-6.14-3.52-5.01-6.94l1.95-5.9H10.47v12.84h3.96c0 2.63 2.13 4.76 4.76 4.76h31.22c2.63 0 4.76-2.13 4.76-4.76l-2.09-19.44z"></path><path fill="#343434" d="M53.08 28.32h-4.21l1.47 13.59c.34 3.12-2.11 5.85-5.25 5.85h-8.18c-3.6 0-6.14-3.52-5.01-6.94l1.95-5.9H10.47v12.84h3.96c0 2.63 2.13 4.76 4.76 4.76h31.22c2.63 0 4.76-2.13 4.76-4.76l-2.09-19.44z" opacity=".2"></path><path fill="red" d="M19.19 51.02a3.26 3.26 0 0 1-3.26-3.26v-1.5h-3.96v-9.84h19.8l-1.3 3.93c-.69 2.09-.35 4.32.94 6.1s3.29 2.81 5.5 2.81h8.18c1.92 0 3.76-.82 5.05-2.25a6.793 6.793 0 0 0 1.69-5.26l-1.29-11.93h1.2l1.95 18.01a3.266 3.266 0 0 1-3.26 3.19H19.19z"></path><path d="M50.42 53.02H19.19c-2.73 0-4.99-2.1-5.24-4.76h-3.48c-.28 0-.5-.22-.5-.5V34.92c0-.28.22-.5.5-.5h23.37c.16 0 .31.08.41.21.09.13.12.3.07.45l-1.95 5.9c-.49 1.47-.25 3.04.66 4.3a4.727 4.727 0 0 0 3.88 1.98h8.18c1.36 0 2.65-.58 3.56-1.59a4.754 4.754 0 0 0 1.19-3.71l-1.47-13.59c-.02-.14.03-.28.13-.39s.23-.17.37-.17h4.21a.5.5 0 0 1 .5.45l2.11 19.44c-.01 2.96-2.37 5.32-5.27 5.32zm-39.45-5.76h3.46c.28 0 .5.22.5.5 0 2.35 1.91 4.26 4.26 4.26h31.23c2.35 0 4.26-1.91 4.26-4.26l-2.06-18.94h-3.21l1.41 13.04c.18 1.63-.35 3.26-1.44 4.48a5.79 5.79 0 0 1-4.3 1.92H36.9a5.71 5.71 0 0 1-4.69-2.4 5.717 5.717 0 0 1-.8-5.2l1.73-5.24H10.97v11.84z"></path><path fill="red" d="M5 52.52c0-7.68 6.24-13.92 13.92-13.92 7.66 0 13.9 6.24 13.9 13.92H5z"></path><path fill="#343434" d="M5 52.52c0-7.68 6.24-13.92 13.92-13.92 7.66 0 13.9 6.24 13.9 13.92H5z" opacity=".2"></path><path fill="red" d="M6.59 51.02c.74-6.15 5.99-10.92 12.33-10.92 6.33 0 11.57 4.78 12.31 10.92H6.59z"></path><path d="M32.83 53.02H5c-.28 0-.5-.22-.5-.5 0-7.95 6.47-14.42 14.42-14.42 7.94 0 14.4 6.47 14.4 14.42.01.28-.22.5-.49.5zm-27.32-1h26.81c-.26-7.17-6.17-12.92-13.39-12.92-7.24 0-13.16 5.75-13.42 12.92z"></path><path d="M24.83 44.52H13c-.28 0-.5-.22-.5-.5s.22-.5.5-.5h11.83c.28 0 .5.22.5.5s-.23.5-.5.5zm0 2.64H13c-.28 0-.5-.22-.5-.5s.22-.5.5-.5h11.83c.28 0 .5.22.5.5s-.23.5-.5.5zm0 2.64H13c-.28 0-.5-.22-.5-.5s.22-.5.5-.5h11.83c.28 0 .5.22.5.5s-.23.5-.5.5z"></path><path fill="#343434" d="m35.91 34.23.67-2.02c.27-.82-.34-1.67-1.21-1.67H10.22c-.7 0-1.27.57-1.27 1.27v2.02c0 .7.57 1.27 1.27 1.27H34.7c.55 0 1.03-.35 1.21-.87z"></path><path d="M34.7 35.6H10.22c-.98 0-1.77-.8-1.77-1.77V31.8c0-.98.8-1.77 1.77-1.77h25.14a1.772 1.772 0 0 1 1.69 2.33l-.67 2.02c-.24.73-.92 1.22-1.68 1.22zm-24.48-4.57a.77.77 0 0 0-.77.77v2.02c0 .43.35.77.77.77H34.7c.33 0 .63-.21.73-.53l.67-2.02c.08-.24.04-.49-.11-.7a.786.786 0 0 0-.63-.32H10.22zm25.69 3.2z"></path><path fill="#ff9f3f" d="M26.66 14.79v14.68c0 .59-.48 1.06-1.06 1.06H8.82c-.59 0-1.06-.48-1.06-1.06V14.79c0-.59.48-1.06 1.06-1.06H25.6c.59-.01 1.06.47 1.06 1.06z"></path><path fill="#343434" d="M26.66 14.79v14.68c0 .59-.48 1.06-1.06 1.06H8.82c-.59 0-1.06-.48-1.06-1.06V14.79c0-.59.48-1.06 1.06-1.06H25.6c.59-.01 1.06.47 1.06 1.06z" opacity=".2"></path><path fill="#ff9f3f" d="M9.26 15.23h15.9v13.8H9.26z"></path><path fill="#e6e6e6" d="M19.54 13.72v5.22l-2.33-.98-2.33.98v-5.22z"></path><path d="M25.6 31.03H8.82c-.86 0-1.56-.7-1.56-1.56V14.79c0-.86.7-1.56 1.56-1.56H25.6c.86 0 1.56.7 1.56 1.56v14.68c0 .86-.7 1.56-1.56 1.56zM8.82 14.22a.56.56 0 0 0-.56.56v14.68c0 .31.25.56.56.56H25.6c.31 0 .56-.25.56-.56V14.79a.56.56 0 0 0-.56-.56H8.82z"></path><path d="M19.54 19.44c-.07 0-.13-.01-.19-.04l-2.14-.9-2.14.9c-.16.06-.33.05-.47-.04a.495.495 0 0 1-.22-.42v-5.22c0-.28.22-.5.5-.5h4.67c.28 0 .5.22.5.5v5.22c0 .17-.08.32-.22.42a.51.51 0 0 1-.29.08zm-2.33-1.98c.07 0 .13.01.19.04l1.64.69v-3.97h-3.67v3.97l1.64-.69c.07-.03.14-.04.2-.04z"></path><path fill="#e6e6e6" d="M53.23 21.95c2.06 0 3.74 1.63 3.74 3.63s-1.67 3.63-3.74 3.63v-7.26z"></path><path d="M53.23 29.71c-.28 0-.5-.22-.5-.5v-7.26c0-.28.22-.5.5-.5 2.33 0 4.23 1.85 4.23 4.13.01 2.28-1.89 4.13-4.23 4.13zm.5-7.22v6.19c1.55-.23 2.73-1.53 2.73-3.09.01-1.57-1.18-2.87-2.73-3.1z"></path><path fill="red" d="M54.25 29.95c-4.1 0-7.44-1.96-7.44-4.37s3.33-4.37 7.44-4.37v8.74z"></path><path fill="#343434" d="M54.25 29.95c-4.1 0-7.44-1.96-7.44-4.37s3.33-4.37 7.44-4.37v8.74z" opacity=".2"></path><path fill="red" d="M54.25 28.82c-3.04 0-5.5-1.45-5.5-3.24 0-1.78 2.47-3.23 5.5-3.23v6.47z"></path><path d="M54.25 30.45c-4.45 0-7.94-2.14-7.94-4.87s3.49-4.87 7.94-4.87c.28 0 .5.22.5.5v8.74c0 .28-.22.5-.5.5zm-.5-8.73c-3.54.15-6.44 1.85-6.44 3.86s2.9 3.71 6.44 3.86v-7.72z"></path><path fill="#343434" d="M49.14 27.17c0 .78-.64 1.41-1.41 1.41s-1.41-.64-1.41-1.41c0-.78.64-1.41 1.41-1.41s1.41.64 1.41 1.41z"></path><path d="M47.72 29.09a1.91 1.91 0 1 1 0-3.82 1.91 1.91 0 0 1 0 3.82zm0-2.83c-.5 0-.91.41-.91.91s.41.91.91.91.91-.41.91-.91-.4-.91-.91-.91zM51.23 26.35c-.21 0-.41-.14-.48-.35l-1.57-4.97a.363.363 0 0 0-.34-.25h-1.11c-.28 0-.5-.22-.5-.5s.22-.5.5-.5h1.11c.6 0 1.12.38 1.3.95l1.57 4.97c.08.26-.06.54-.33.63-.05.02-.1.02-.15.02z"></path><path fill="#343434" d="M46.31 17.71c1.28 0 2.32 1.01 2.32 2.26 0 1.24-1.04 2.25-2.32 2.25v-4.51z"></path><path d="M46.31 22.72c-.28 0-.5-.22-.5-.5v-4.51c0-.28.22-.5.5-.5 1.56 0 2.82 1.24 2.82 2.76 0 1.52-1.27 2.75-2.82 2.75zm.5-4.44v3.38c.76-.21 1.32-.89 1.32-1.69 0-.8-.56-1.48-1.32-1.69z"></path></svg>