<svg xmlns="http://www.w3.org/2000/svg" viewBox="0 0 32 32" id="fast-food"><path fill="#d5e5f1" d="M18.66 7.804h9.185c.501 0 .908.406.908.908 0 2.054-.252 4.1-.75 6.092a25.125 25.125 0 0 0-.75 6.092v5.908a1 1 0 0 1-1 1h-6a1 1 0 0 1-1-1v-5.908c0-2.054-.252-4.1-.75-6.092a25.125 25.125 0 0 1-.75-6.092.906.906 0 0 1 .907-.908z"></path><path fill="#b0c4da" d="M22.816 16.812c.037-.023.077-.038.114-.059a3.987 3.987 0 0 0-2.958.479c-.041.025-.085.037-.126.061a4 4 0 0 0 2.97-.481z"></path><path fill="#90cff1" d="M23.751 22.304a.5.5 0 0 1-.492-.413l-2.94-16.663-4.665-.933a.5.5 0 0 1-.392-.588.495.495 0 0 1 .588-.392l5 1a.501.501 0 0 1 .394.403l3 17a.5.5 0 0 1-.493.586z"></path><path fill="#72b7e5" d="M23.26 21.891a.498.498 0 0 0 .579.405.499.499 0 0 0 .405-.579L21.789 7.804h-1.015l2.486 14.087z"></path><path fill="#b0c4da" d="M27.844 7.804h-2c.501 0 .908.406.908.908 0 2.054-.252 4.1-.75 6.092s-.75 4.039-.75 6.092v5.908a1 1 0 0 1-1 1h2a1 1 0 0 0 1-1v-5.908c0-2.054.252-4.1.75-6.092s.75-4.039.75-6.092a.908.908 0 0 0-.908-.908z"></path><path fill="#4c6d86" d="M26.831 16.729a4.003 4.003 0 0 0-4.015.083c-.928.565-2 .706-2.984.478v.004c.236 1.214.359 2.449.359 3.687v5.823h6.16v-5.823c0-1.43.167-2.854.481-4.249l-.001-.003z"></path><path fill="#41667d" d="M25.674 16.315a25.134 25.134 0 0 0-.422 4.582v5.908h1.098v-5.823c0-1.43.167-2.854.481-4.249v-.004a3.993 3.993 0 0 0-1.157-.414z"></path><path fill="#617e95" d="M22.022 26.787h1.307a.5.5 0 0 0 .5-.5V24.98a.5.5 0 0 0-.5-.5h-1.307a.5.5 0 0 0-.5.5v1.307a.5.5 0 0 0 .5.5z"></path><path fill="#617e95" d="m25.072 25.312 1.136-1.136a.5.5 0 0 0 0-.707l-1.136-1.136a.5.5 0 0 0-.707 0l-1.136 1.136a.5.5 0 0 0 0 .707l1.136 1.136a.5.5 0 0 0 .707 0z"></path><path fill="#4c6d86" d="m25.252 25.132.956-.956a.496.496 0 0 0 .143-.334v-.04a.496.496 0 0 0-.143-.334l-.956-.956v2.62z"></path><path fill="#f47423" d="M19.122 25.971a.999.999 0 0 1-.701 1.284 16 16 0 0 1-15.898-4.579 1 1 0 0 1 .089-1.46l.017-.014c.414-.335 1.006-.269 1.368.122a14.008 14.008 0 0 0 13.895 4.001c.514-.138 1.05.121 1.223.624l.007.022z"></path><path fill="#ed5d25" d="m19.122 25.971-.007-.021c-.173-.504-.709-.763-1.223-.625-.346.093-.696.169-1.047.235.116.106.216.23.27.39l.007.021a.999.999 0 0 1-.701 1.284 16.006 16.006 0 0 1-3.128.514 16.005 16.005 0 0 0 5.128-.514.999.999 0 0 0 .701-1.284zm-10.734-.713c1.584.456 3.228.622 4.854.508a14.013 14.013 0 0 1-9.245-4.441c-.362-.391-.954-.457-1.368-.122l-.017.014a.946.946 0 0 0-.29.435 14.007 14.007 0 0 0 6.066 3.606z"></path><path fill="#ffcc5c" d="M14.262 11.804 4.18 21.518a13.996 13.996 0 0 0 13.454 3.875l-3.372-13.589z"></path><path fill="#f7b546" d="m14.262 11.804-1.414 1.362 1.96 7.901c.475 1.915-.996 3.79-2.968 3.731a14.002 14.002 0 0 1-3.453-.54 14.046 14.046 0 0 1-1.395-.49 14 14 0 0 0 10.641 1.625l-3.371-13.589z"></path><circle cx="8.811" cy="21.173" r="1" fill="#f04c4d" transform="rotate(-73.936 8.811 21.174)"></circle><circle cx="13.892" cy="21.596" r="1" fill="#f04c4d" transform="rotate(-73.936 13.893 21.597)"></circle><circle cx="12.459" cy="17.541" r="1" fill="#f04c4d" transform="rotate(-73.936 12.459 17.542)"></circle><circle cx="12.459" cy="17.541" r="1" fill="#f04c4d" transform="rotate(-73.936 12.459 17.542)"></circle><path fill="#e13340" d="M9.088 20.212c-.071-.02-.14-.013-.211-.017.334.24.504.664.384 1.081a.985.985 0 0 1-1.027.701c.09.065.187.124.3.156a1 1 0 1 0 .554-1.921zm3.647-3.632c-.071-.02-.14-.013-.211-.017.334.24.504.664.384 1.081a.985.985 0 0 1-1.027.701c.09.065.187.124.3.156a1 1 0 1 0 .554-1.921zm1.434 4.055c-.071-.02-.14-.013-.211-.017.334.24.504.664.384 1.081a.985.985 0 0 1-1.027.701c.09.065.187.124.3.156a1 1 0 1 0 .554-1.921z"></path></svg>