<svg xmlns="http://www.w3.org/2000/svg" data-name="Layer 1" viewBox="0 0 512 512" id="food-box"><path fill="#c7ad92" d="M473 449.502H282.703l3.297 45-66.298 1.193 9.595-46.193H39l60-195h314l60 195z"></path><path fill="#b79b7b" d="m413 254.5-28.077 55.001L428 449.5M127.08 309.502l-43.08 140"></path><path fill="#c7ad92" d="M421.625 7.5H90.375a6 6 0 0 0-5.989 6.364L99 254.5h314l14.614-240.636a6 6 0 0 0-5.99-6.364Z"></path><path fill="#b79b7b" d="M421.625 7.5h-45a6 6 0 0 1 5.989 6.364L368 254.5h45l14.614-240.636a6 6 0 0 0-5.99-6.364Z"></path><path fill="#ed4769" d="M75.202 52.5h154.095a26.703 26.703 0 1 0 53.406 0h154.095a6 6 0 0 0 5.692-7.897L432.4 14.338a10 10 0 0 0-9.487-6.838H89.087a10 10 0 0 0-9.487 6.838L69.51 44.603a6 6 0 0 0 5.692 7.897Z"></path><path fill="#eb304a" d="M442.49 44.603 432.4 14.338a10 10 0 0 0-9.486-6.838h-45a10 10 0 0 1 9.486 6.838l10.089 30.265a6 6 0 0 1-5.692 7.897h45a6 6 0 0 0 5.692-7.897Z"></path><path fill="#ed4769" d="M473 449.5H282.703a26.703 26.703 0 1 1-53.406 0H39v45a10 10 0 0 0 10 10h414a10 10 0 0 0 10-10Z"></path><path fill="#eb304a" d="M428 449.5v45a10 10 0 0 1-10 10h45a10 10 0 0 0 10-10v-45Z"></path><path fill="#fff" d="M365 210.612a7.507 7.507 0 0 1-3.1-14.352 7.497 7.497 0 0 1 10.6 6.802v.05a7.5 7.5 0 0 1-7.5 7.5zm-31.09 0h-.103a7.5 7.5 0 0 1 0-15h.103a7.5 7.5 0 0 1 0 15zm-31.143 0h-.104a7.5 7.5 0 0 1 0-15h.104a7.5 7.5 0 0 1 0 15zm-31.144 0h-.103a7.5 7.5 0 0 1 0-15h.103a7.5 7.5 0 0 1 0 15zm-31.143 0h-.103a7.5 7.5 0 0 1 0-15h.104a7.5 7.5 0 0 1 0 15zm-31.143 0h-.104a7.5 7.5 0 0 1 0-15h.104a7.5 7.5 0 0 1 0 15zm-31.144 0h-.103a7.5 7.5 0 0 1 0-15h.103a7.5 7.5 0 0 1 0 15zm-31.143 0H147a7.5 7.5 0 1 1 .05 0zm-.05-26.335a7.462 7.462 0 0 1-7.5-7.456v-.088a7.5 7.5 0 1 1 7.5 7.544zm0-26.33a7.462 7.462 0 0 1-7.5-7.455v-.088a7.5 7.5 0 1 1 7.5 7.544zm0-26.31a7.478 7.478 0 0 1-7.5-7.476v-.05a7.497 7.497 0 1 1 7.5 7.525zm186.91-.025h-.103a7.5 7.5 0 0 1 0-15h.103a7.5 7.5 0 0 1 0 15zm-31.143 0h-.104a7.5 7.5 0 0 1 0-15h.104a7.5 7.5 0 0 1 0 15zm-31.144 0h-.103a7.5 7.5 0 0 1 0-15h.103a7.5 7.5 0 0 1 0 15zm-31.143 0h-.103a7.5 7.5 0 0 1 0-15h.104a7.5 7.5 0 0 1 0 15zm-31.143 0h-.104a7.5 7.5 0 0 1 0-15h.104a7.5 7.5 0 0 1 0 15zm-31.144 0h-.103a7.5 7.5 0 0 1 0-15h.103a7.5 7.5 0 0 1 0 15zm186.807.024a7.512 7.512 0 0 1-.05-15.024h.05a7.512 7.512 0 0 1 0 15.024zm0 52.684a7.522 7.522 0 1 1 7.5-7.588v.088a7.5 7.5 0 0 1-7.5 7.5zm0-26.33a7.522 7.522 0 1 1 7.5-7.587v.088a7.5 7.5 0 0 1-7.5 7.5z"></path><path fill="#af8d74" d="m99 254.5 28.08 55.002h257.84l28.08-55-314-.002z"></path><path fill="#b79b7b" d="M473 449.502h-45l-15-195 60 195zM127.08 309.502l-43.08 140H39l60-195 28.08 55z"></path></svg>